<svg width="15" height="12" viewBox="0 0 15 12" fill="none" xmlns="http://www.w3.org/2000/svg">
<path id="Mask" fill-rule="evenodd" clip-rule="evenodd" d="M12.6772 0H2.0105C0.909202 0 0.0171645 0.898233 0.0171645 2L0.010498 9.99944C0.010498 11.1015 0.908975 12 2.0105 12H12.6772C13.7787 12 14.6772 11.1015 14.6772 10V2C14.6772 0.898477 13.7787 0 12.6772 0ZM2.99987 4.0001C2.6845 3.81008 2.58289 3.40039 2.77291 3.08502C2.96292 2.76965 3.37262 2.66803 3.68799 2.85805L7.32429 5.04902L11.1184 2.76296C11.4343 2.57264 11.8446 2.67442 12.035 2.99029C12.2249 3.30545 12.124 3.71483 11.8095 3.90574L7.35047 6.61201L7.3463 6.61893L2.99987 4.0001Z" fill="black"/>
</svg>
