<svg width="13" height="12" viewBox="0 0 13 12" fill="none" xmlns="http://www.w3.org/2000/svg">
<path id="Mask" fill-rule="evenodd" clip-rule="evenodd" d="M2.94458 5.19333C3.90458 7.08 5.45125 8.62 7.33792 9.58667L8.80458 8.12C8.98458 7.94 9.25125 7.88 9.48458 7.96C10.2313 8.20667 11.0379 8.34 11.8646 8.34C12.2313 8.34 12.5312 8.64 12.5312 9.00667V11.3333C12.5312 11.7 12.2313 12 11.8646 12C5.60458 12 0.53125 6.92667 0.53125 0.666667C0.53125 0.3 0.83125 0 1.19792 0H3.53125C3.89792 0 4.19792 0.3 4.19792 0.666667C4.19792 1.5 4.33125 2.3 4.57792 3.04667C4.65125 3.28 4.59792 3.54 4.41125 3.72667L2.94458 5.19333Z" fill="black"/>
</svg>
